<svg xmlns="http://www.w3.org/2000/svg" width="204" height="48"><path fill="#0a3e93" d="M191.197 42.551c1.494-.782 3.024-1.524 3.485-3.457-1.462.813-2.6 1.996-3.485 3.457m-29.689.138c1.73-.702 2.377-2.61 3.185-4.342-1.48.982-2.305 2.687-3.185 4.342m35.278-4.003c-1.654 4.309 3.207 6.186 7.19 5.074-1.323 3.101-8.267.703-8.723-2.38-1.546.95-4.85 5-5.978 1.415l-5.712-.308c-.796.276-.65 1.6-1.486 1.83-3.231-.81.106-4.126.326-6.058-1.743.924-4.403.988-6.034 2.453-1.53 1.374-.911 4.025-2.876 5.052.004-.168-.205-.146-.337-.191-.349-1.403.793-2.643 1.08-3.935-1.342.03-2.075.747-3.508.68-.597.86-.51 2.484-1.216 3.232-.87-.042-.884-.853-.772-1.777-1.806.78-4.023-.14-4.243-1.79-.756.701-1.2 1.058-2.007 1.8-.415.378-2.898 3.157-3.142.352-.143-1.657 4.077-7.852 5.62-7.682 1.385.147 1.038 1.671 1.765 2.699-1.601 2.233-.747 4.916 2.418 3.428.901-1.87 1.234-4.375 2.567-5.764.548-.057.665.282 1.02.402.069 1.142-1.191 2.154-1.408 3.57 3.489.154 4.683-2.246 5.81-4.721.357.173.754.31 1.01.575.211.56-.575 1.372-.804 2.04 2.219.157 5.123-3.635 7.217-1.869-.129 1.141-.936 1.527-1.015 2.723.745-.403 1.899-1.58 3.092-2.61.87-.754 2.5-2.812 3.527-1.026-.854.995-2.087 1.594-3.083 2.438-1.004.848-1.985 1.691-2.754 2.802 1.615.362 3.565.419 5.347.635 1.747-1.555 4.788-6.714 7.11-3.089M104.783 42.7c.348 1.087 1.285 1.271 2.436 1.914-2.122 1.411-5.027-2.513-3.306-5.046-1.962-.034-5.438 6.158-8.527 5.568-2.562-.493-.88-4.795 0-6.439-1.552 1.91-5.332 5.09-7.308 7.309-.561.628-.933 1.755-1.74 1.74-1.412-.024-1.345-1.629-.87-2.784.768-.193.865.295 1.391.348 4.55-3.572 7.899-8.348 11.486-12.877.444.077.802.242 1.044.522-.745 3.437-4.148 6.637-4.003 10.963 2.65-1.136 5.433-3.345 7.657-5.569.986-.99 1.638-2.837 3.306-2.61.643 1.876-2.296 4.65-1.566 6.96m4.35 1.74c2.615-1.053 5.177-3.044 4.873-6.437-2.369 1.397-3.722 3.813-4.873 6.438m5.57-7.308c.656.521.854 2.102.52 3.306-.52 1.88-6.075 7.83-7.308 4.176-.323-.972.257-2.098 1.044-3.306.962-1.474 3.514-5.955 5.743-4.176m43.603-5.898c-2.743 2.852 2.785 6.481.47 10.614-.806 1.442-3.129 4.104-4.714 3.739-.991-.232-1.382-1.844-1.072-2.662.69-1.81 2.245-6.673 4.634-5.479-.117 1.002-1.168 1.288-1.67 1.993-.86 1.212-1.34 2.682-1.635 4.599 2.21-.932 4.236-2.93 3.796-6.044-.421-3.003-3.915-5.197-.618-7.845 1.335-1.07 3.19-1.694 5.332-2.316 1.856-.542 4.473-1.596 5.902-.03-3.539.803-7.984.891-10.425 3.431m-38.383 7.986c1.054-.17 1.866-1.5 1.566-2.436-.653.681-1.634 1.029-1.566 2.436m10.267-2.088c.904 1.14-.015 3.223-.522 4.872-.194.817 1.33.498.696 1.218-.638 1.03-1.551-.488-1.914-.87-.058-.933.077-1.663.348-2.262-1.895.26-2.867 2.924-5.395 3.132-.628 1.01-1.812 3.524-3.132 1.74.058-1.044 1.257-.952 1.392-1.914-.082-.962-.884-1.204-1.392-1.74-1.808.797-2.837 2.378-4.698 3.132-.62-.256-1.122-.619-1.044-1.566 2.16-.218 3.234-1.523 4.525-2.61-1.93-2.581 2.377-6.584 4.175-3.829-.251 1.78-1.126 2.934-2.088 4.003.59.744 1.305 1.363 1.914 2.088a47.691 47.691 0 0 0 5.917-4.873c-.875-.4-2.165-.386-2.089-1.74.58-.275 1.47-.179 1.915.174 2.745-.019 7.293-1.426 9.397.174-2.234.72-5.463.454-8.005.87m5.51 6.227c1.849-1.042 3.776-1.994 4.147-4.508-2.158.726-3.305 2.464-4.146 4.508m5.228-1.082c.226 1.372 6.986-1.057 8.163-.611-1.362 1.412-5.474 2.774-7.442 2.414-.721-.135-1.582-1.593-2.163-1.623-.496-.03-1.889 1.372-1.983 1.442-.962.687-2.86 2.314-3.426.18-.75-2.849 6.826-10.326 7.753-4.687-.046 1.212-1.152 1.373-.902 2.885m-8.28-36.68h6.223v14.475l5.634-7.269h6.78l-5.57 6.911 6.39 9.563h-7.372l-5.862-9.172v9.172h-6.223V5.596m-14.06 7.206c.035.589.069 1.212.101 1.802 1.407-1.638 3.045-2.294 5.144-2.294 3.535 0 6.155 2.294 6.155 5.929v11.038h-6.22v-9.434c0-1.799-.463-3.602-2.394-3.602-2.161 0-2.685 1.604-2.685 3.245v9.79h-6.224V17.028a40.6 40.6 0 0 0-.194-4.225h6.317m-17.651 13.364c2.682 0 2.914-2.524 2.914-4.718-1.867 0-2.752.036-3.407.361-.918.46-1.636 1.048-1.636 2.196 0 1.18.947 2.162 2.129 2.162m3.14 3.11c-.13-.522-.13-1.046-.13-2.229h-.062c-.884 1.769-3.111 2.72-5.243 2.72-3.833 0-5.862-2.032-5.862-5.307 0-4.158 3.702-5.796 9.105-5.796h1.966V17.65c0-1.212-.2-2.457-2-2.457-1.538 0-2.127 1.245-2.127 2.524H93.86c.035-4.751 4.95-5.407 8.517-5.407 3.308 0 7.305 1.376 7.305 5.012v8.581c0 .689.13 1.41.36 3.373h-5.963M82.174 15.914c-2.818 0-3.047 3.176-3.047 5.37 0 1.835.559 4.882 2.817 4.882 2.72 0 3.178-3.078 3.178-5.208 0-2.033-.293-5.044-2.948-5.044m-9.27-10.317h6.223v8.94h.068c1.142-1.473 3.142-2.227 5.01-2.227 5.044 0 7.307 3.8 7.307 8.451 0 5.043-2.232 9.007-7.666 9.007-1.902 0-4.16-1.245-4.588-2.915h-.131c-.065.82-.097 1.606-.162 2.423h-6.06V5.596m-9.376 7.206h6.223v16.476h-6.223zM45.034 5.597h16.734v4.583H51.583v5.503h9.466v4.586h-9.466v9.007h-6.549V5.596M23.21 7.272l-.806.804 11.011 11.011.803-.806zm-3.277.739l3.211-3.216L36.69 18.346l-3.211 3.212zm1.628-4.796L8.015 16.761 4.803 13.55 18.35 0zM7.275 13.484l.804.803L19.089 3.28l-.805-.802zm22.146 9.724l-.804-.803-11.01 11.007.804.804zm-14.288 10.27L28.68 19.93l3.211 3.213L18.348 36.69zM3.212 15.13l13.547 13.547-3.211 3.217L0 18.346zm-.738 3.28l11.011 11.005.8-.8-11.01-11.013zm13.828-6.886h4.089v13.645H16.3z"/><path fill="#d8232a" d="M63.496 9.988h6.287v-4.39h-6.287z"/></svg>